<?xml version="1.0" encoding="utf-8"?>
<svg version="1.1" xmlns:xlink="http://www.w3.org/1999/xlink" width="7px" height="7px" xmlns="http://www.w3.org/2000/svg">
  <g transform="matrix(1 0 0 1 -916 -102 )">
    <path d="M 5.56212686567165 0.889365671641791  C 5.66007462686567 0.791417910447761  5.77630597014925 0.775746268656717  5.83638059701492 0.775746268656716  C 5.8964552238806 0.775746268656716  6.01138059701492 0.790111940298508  6.11063432835821 0.889365671641791  C 6.26212686567164 1.04085820895522  6.26212686567164 1.28638059701493  6.11063432835821 1.43787313432836  L 1.60634328358209 5.94216417910448  L 0.908955223880597 6.09365671641791  L 1.05914179104478 5.39235074626866  L 5.56212686567165 0.889365671641791  Z M 6.65914179104477 0.340858208955224  C 6.43190298507463 0.113619402985074  6.13414179104478 0  5.83638059701493 0  C 5.53861940298508 0  5.24085820895522 0.113619402985075  5.01361940298507 0.340858208955224  L 0.51063432835821 4.84384328358209  C 0.404850746268656 4.94962686567164  0.331716417910448 5.08414179104478  0.300373134328358 5.23041044776119  L 0.0195895522388048 6.54682835820895  C -0.0143656716417909 6.78451492537313  0.171082089552239 6.98955223880597  0.402238805970149 6.98955223880597  C 0.420522388059701 6.98955223880597  0.438805970149253 6.98824626865671  0.458395522388061 6.98563432835821  L 1.77220149253731 6.7009328358209  C 1.91847014925373 6.66958955223881  2.05167910447761 6.5964552238806  2.15615671641791 6.49067164179104  L 6.65914179104477 1.98768656716418  C 7.11361940298507 1.53320895522388  7.11361940298507 0.795335820895522  6.65914179104477 0.340858208955224  Z " fill-rule="nonzero" fill="#666666" stroke="none" transform="matrix(1 0 0 1 916 102 )" />
  </g>
</svg>